<?xml version="1.0" encoding="UTF-8" standalone="no"?>
<!-- Created with Inkscape (http://www.inkscape.org/) -->

<svg
   xmlns:osb="http://www.openswatchbook.org/uri/2009/osb"
   xmlns:dc="http://purl.org/dc/elements/1.1/"
   xmlns:cc="http://creativecommons.org/ns#"
   xmlns:rdf="http://www.w3.org/1999/02/22-rdf-syntax-ns#"
   xmlns:svg="http://www.w3.org/2000/svg"
   xmlns="http://www.w3.org/2000/svg"
   xmlns:xlink="http://www.w3.org/1999/xlink"
   xmlns:sodipodi="http://sodipodi.sourceforge.net/DTD/sodipodi-0.dtd"
   xmlns:inkscape="http://www.inkscape.org/namespaces/inkscape"
   width="186.03981mm"
   height="186.03981mm"
   viewBox="0 0 659.19618 659.19617"
   id="svg2"
   version="1.1"
   inkscape:version="0.91 r13725"
   sodipodi:docname="logo.svg">
  <defs
     id="defs4">
    <linearGradient
       id="linearGradient4744"
       osb:paint="solid">
      <stop
         style="stop-color:#000000;stop-opacity:1;"
         offset="0"
         id="stop4746" />
    </linearGradient>
    <linearGradient
       id="linearGradient4220"
       osb:paint="gradient">
      <stop
         style="stop-color:#000080;stop-opacity:1;"
         offset="0"
         id="stop4222" />
      <stop
         style="stop-color:#000000;stop-opacity:1"
         offset="1"
         id="stop4224" />
    </linearGradient>
    <linearGradient
       inkscape:collect="always"
       xlink:href="#linearGradient4744"
       id="linearGradient4756"
       x1="187.79327"
       y1="486.04776"
       x2="630.3573"
       y2="486.04776"
       gradientUnits="userSpaceOnUse" />
  </defs>
  <sodipodi:namedview
     id="base"
     pagecolor="#ffffff"
     bordercolor="#666666"
     borderopacity="1.0"
     inkscape:pageopacity="0.0"
     inkscape:pageshadow="2"
     inkscape:zoom="0.63571268"
     inkscape:cx="-67.665751"
     inkscape:cy="324.56484"
     inkscape:document-units="px"
     inkscape:current-layer="layer1"
     showgrid="false"
     inkscape:window-width="1600"
     inkscape:window-height="838"
     inkscape:window-x="-8"
     inkscape:window-y="-8"
     inkscape:window-maximized="1"
     fit-margin-top="0"
     fit-margin-left="0"
     fit-margin-right="0"
     fit-margin-bottom="0" />
  <metadata
     id="metadata7">
    <rdf:RDF>
      <cc:Work
         rdf:about="">
        <dc:format>image/svg+xml</dc:format>
        <dc:type
           rdf:resource="http://purl.org/dc/dcmitype/StillImage" />
        <dc:title></dc:title>
      </cc:Work>
    </rdf:RDF>
  </metadata>
  <g
     inkscape:groupmode="layer"
     id="layer2"
     inkscape:label="Layer 2"
     transform="translate(-40.627563,-159.90875)">
    <circle
       style="fill:#000000;fill-opacity:1;fill-rule:evenodd;stroke:#000000;stroke-width:20;stroke-linecap:butt;stroke-linejoin:miter;stroke-miterlimit:0;stroke-dasharray:none;stroke-opacity:1"
       id="path3374"
       cx="370.22565"
       cy="489.50684"
       r="319.59808"
       inkscape:export-xdpi="90"
       inkscape:export-ydpi="90" />
    <path
       sodipodi:type="star"
       style="fill:#f9f9f9;fill-opacity:1;stroke:#000000;stroke-width:0;stroke-miterlimit:0;stroke-dasharray:none;stroke-opacity:1"
       id="path4742-0-6-7"
       sodipodi:sides="5"
       sodipodi:cx="113.75453"
       sodipodi:cy="522.08405"
       sodipodi:r1="28.891718"
       sodipodi:r2="58.962688"
       sodipodi:arg1="0.80426385"
       sodipodi:arg2="1.4325824"
       inkscape:flatsided="false"
       inkscape:rounded="-0.01"
       inkscape:randomized="0"
       d="m 133.79503,542.89533 c 0.28405,-0.27352 -12.30752,37.64344 -11.91696,37.58912 0.39057,-0.0543 -22.071305,-33.09533 -21.72339,-32.90971 0.34791,0.18561 -39.604278,-0.0727 -39.431916,0.28197 0.172362,0.35466 24.655117,-31.21808 24.586094,-30.82984 -0.06902,0.38824 -12.169261,-37.68836 -12.453304,-37.41484 -0.284043,0.27352 37.309006,13.80149 36.918446,13.85582 -0.39057,0.0543 32.08325,-23.22 31.73534,-23.40562 -0.34791,-0.18562 -1.59688,39.74787 -1.76924,39.39321 -0.17236,-0.35467 31.9978,23.33761 32.06683,22.94937 0.069,-0.38824 -38.29594,10.76405 -38.0119,10.49052 z"
       inkscape:transform-center-x="30.160632"
       inkscape:transform-center-y="-20.280818"
       transform="matrix(0.38306538,-0.22375085,0.22375085,0.38306538,394.44153,477.08482)"
       inkscape:export-xdpi="90"
       inkscape:export-ydpi="90" />
    <path
       sodipodi:type="star"
       style="fill:#f9f9f9;fill-opacity:1;stroke:#000000;stroke-width:0;stroke-miterlimit:0;stroke-dasharray:none;stroke-opacity:1"
       id="path4742-0-6-7-2"
       sodipodi:sides="5"
       sodipodi:cx="113.75453"
       sodipodi:cy="522.08405"
       sodipodi:r1="28.891718"
       sodipodi:r2="58.962688"
       sodipodi:arg1="0.80426385"
       sodipodi:arg2="1.4325824"
       inkscape:flatsided="false"
       inkscape:rounded="-0.01"
       inkscape:randomized="0"
       d="m 133.79503,542.89533 c 0.28405,-0.27352 -12.30752,37.64344 -11.91696,37.58912 0.39057,-0.0543 -22.071305,-33.09533 -21.72339,-32.90971 0.34791,0.18561 -39.604278,-0.0727 -39.431916,0.28197 0.172362,0.35466 24.655117,-31.21808 24.586094,-30.82984 -0.06902,0.38824 -12.169261,-37.68836 -12.453304,-37.41484 -0.284043,0.27352 37.309006,13.80149 36.918446,13.85582 -0.39057,0.0543 32.08325,-23.22 31.73534,-23.40562 -0.34791,-0.18562 -1.59688,39.74787 -1.76924,39.39321 -0.17236,-0.35467 31.9978,23.33761 32.06683,22.94937 0.069,-0.38824 -38.29594,10.76405 -38.0119,10.49052 z"
       inkscape:transform-center-x="30.160632"
       inkscape:transform-center-y="-20.280818"
       transform="matrix(0.38306538,-0.22375085,0.22375085,0.38306538,-49.941621,337.35582)"
       inkscape:export-xdpi="90"
       inkscape:export-ydpi="90" />
    <path
       sodipodi:type="star"
       style="fill:#f9f9f9;fill-opacity:1;stroke:#000000;stroke-width:0;stroke-miterlimit:0;stroke-dasharray:none;stroke-opacity:1"
       id="path4742-0-6-7-2-9"
       sodipodi:sides="5"
       sodipodi:cx="113.75453"
       sodipodi:cy="522.08405"
       sodipodi:r1="28.891718"
       sodipodi:r2="58.962688"
       sodipodi:arg1="0.80426385"
       sodipodi:arg2="1.4325824"
       inkscape:flatsided="false"
       inkscape:rounded="-0.01"
       inkscape:randomized="0"
       d="m 133.79503,542.89533 c 0.28405,-0.27352 -12.30752,37.64344 -11.91696,37.58912 0.39057,-0.0543 -22.071305,-33.09533 -21.72339,-32.90971 0.34791,0.18561 -39.604278,-0.0727 -39.431916,0.28197 0.172362,0.35466 24.655117,-31.21808 24.586094,-30.82984 -0.06902,0.38824 -12.169261,-37.68836 -12.453304,-37.41484 -0.284043,0.27352 37.309006,13.80149 36.918446,13.85582 -0.39057,0.0543 32.08325,-23.22 31.73534,-23.40562 -0.34791,-0.18562 -1.59688,39.74787 -1.76924,39.39321 -0.17236,-0.35467 31.9978,23.33761 32.06683,22.94937 0.069,-0.38824 -38.29594,10.76405 -38.0119,10.49052 z"
       inkscape:transform-center-x="30.160632"
       inkscape:transform-center-y="-20.280818"
       transform="matrix(0.38306538,-0.22375085,0.22375085,0.38306538,123.0925,557.58111)"
       inkscape:export-xdpi="90"
       inkscape:export-ydpi="90" />
    <path
       sodipodi:type="star"
       style="fill:#f9f9f9;fill-opacity:1;stroke:#000000;stroke-width:0;stroke-miterlimit:0;stroke-dasharray:none;stroke-opacity:1"
       id="path4742-0-6-7-2-9-9"
       sodipodi:sides="5"
       sodipodi:cx="113.75453"
       sodipodi:cy="522.08405"
       sodipodi:r1="28.891718"
       sodipodi:r2="58.962688"
       sodipodi:arg1="0.80426385"
       sodipodi:arg2="1.4325824"
       inkscape:flatsided="false"
       inkscape:rounded="-0.01"
       inkscape:randomized="0"
       d="m 133.79503,542.89533 c 0.28405,-0.27352 -12.30752,37.64344 -11.91696,37.58912 0.39057,-0.0543 -22.071305,-33.09533 -21.72339,-32.90971 0.34791,0.18561 -39.604278,-0.0727 -39.431916,0.28197 0.172362,0.35466 24.655117,-31.21808 24.586094,-30.82984 -0.06902,0.38824 -12.169261,-37.68836 -12.453304,-37.41484 -0.284043,0.27352 37.309006,13.80149 36.918446,13.85582 -0.39057,0.0543 32.08325,-23.22 31.73534,-23.40562 -0.34791,-0.18562 -1.59688,39.74787 -1.76924,39.39321 -0.17236,-0.35467 31.9978,23.33761 32.06683,22.94937 0.069,-0.38824 -38.29594,10.76405 -38.0119,10.49052 z"
       inkscape:transform-center-x="30.160632"
       inkscape:transform-center-y="-20.280818"
       transform="matrix(0.38306538,-0.22375085,0.22375085,0.38306538,266.23895,77.804614)"
       inkscape:export-xdpi="90"
       inkscape:export-ydpi="90" />
  </g>
  <g
     inkscape:label="Layer 1"
     inkscape:groupmode="layer"
     id="layer1"
     transform="translate(-40.627563,-159.90875)">
    <path
       style="fill:#ffffff;fill-opacity:1;fill-rule:nonzero;stroke:url(#linearGradient4756);stroke-width:10;stroke-linecap:round;stroke-linejoin:miter;stroke-miterlimit:0;stroke-dasharray:none;stroke-opacity:1"
       id="path3371"
       d="m 207.78114,338.68999 c 25.04993,-52.3617 98.43139,-54.21175 134.19392,-15.26162 2.22538,2.31412 175.65862,-19.67064 172.95498,173.95777 113.56204,20.76035 110.42503,59.36536 110.42503,59.36536 0.51737,32.97121 -87.67596,53.33746 -165.66411,-10.72787 -19.56757,2.43618 -62.699,-4.71911 -62.699,-4.71911 0,0 3.12321,106.59663 -25.96909,134.30896 -26.94097,-3.03516 -36.37573,-52.45715 -8.98599,-141.02684 -4.34881,-4.12885 -31.69679,5.47363 -84.21488,-54.6901 -2.31522,-1.05568 -10.92042,6.39055 -38.15104,-3.26717 -5.56722,-1.97449 1.18074,13.26184 -4.60929,33.6783 -4.47454,-0.73368 24.08088,70.79487 3.92552,106.54418 -7.84187,13.90899 -56.28078,-73.77289 -28.95772,-213.61528 -9.73578,-6.76903 -13.34784,-11.02781 -14.39229,-14.23406 0,0 -11.62894,-16.28226 12.14396,-50.31252 z"
       inkscape:connector-curvature="0"
       sodipodi:nodetypes="cccccccccscsccc"
       inkscape:export-xdpi="90"
       inkscape:export-ydpi="90" />
    <ellipse
       style="fill:#000000;fill-opacity:1"
       id="path4179"
       ry="8.7927809"
       rx="9.5413198"
       cy="386.27615"
       cx="172.2075"
       transform="matrix(0.99167135,-0.12879419,0.27934066,0.96019206,0,0)"
       inkscape:export-xdpi="90"
       inkscape:export-ydpi="90" />
    <ellipse
       style="fill:#000000;fill-opacity:1"
       id="path4179-5"
       ry="7.315743"
       rx="6.4999375"
       cy="-298.48007"
       cx="288.30396"
       transform="matrix(0.98719499,0.15951818,0.22768678,-0.97373442,0,0)"
       inkscape:export-xdpi="90"
       inkscape:export-ydpi="90" />
    <path
       style="fill:#000000;fill-opacity:1;stroke:#000000;stroke-width:2.8839972;stroke-linecap:square;stroke-miterlimit:0;stroke-dasharray:none;stroke-opacity:1"
       id="path4857"
       d="m 228.01968,396.10872 c 12.03946,10.02092 40.13032,8.10225 40.13032,8.10225 -20.27831,0.50053 -25.47262,8.55448 -67.34597,-9.66653 8.98479,-0.43622 4.35705,8.63998 27.21565,1.56404 z"
       inkscape:connector-curvature="0"
       sodipodi:nodetypes="ccccc"
       inkscape:export-xdpi="90"
       inkscape:export-ydpi="90" />
    <path
       style="fill:#000000;fill-opacity:1;stroke:#000000;stroke-width:5.30113697;stroke-linecap:square;stroke-miterlimit:0;stroke-dasharray:none;stroke-opacity:1"
       id="path4859"
       d="m 391.75332,474.05063 c 3.20218,31.97427 19.03279,107.51923 4.89805,86.74383 l 0,0 c -0.12629,-2.12244 -0.22401,-4.22393 -0.49988,-6.41459 -3.63157,-29.22668 -7.48363,-58.90667 -11.21294,-85.89311 z"
       inkscape:connector-curvature="0"
       sodipodi:nodetypes="cccccc"
       inkscape:export-xdpi="90"
       inkscape:export-ydpi="90" />
    <path
       style="fill:#000000;fill-opacity:1;stroke:#000000;stroke-width:5.30113697;stroke-linecap:square;stroke-miterlimit:0;stroke-dasharray:none;stroke-opacity:1"
       id="path4859-2"
       d="m 357.8744,463.92678 c 13.09018,38.99079 7.23063,109.60296 -5.48631,86.70861 l 0,0 c 0.12784,-2.12235 0.28155,-4.22049 0.26901,-6.42841 11.65822,-22.38511 8.72367,-53.90335 -0.88497,-86.6174 z"
       inkscape:connector-curvature="0"
       sodipodi:nodetypes="cccccc"
       inkscape:transform-center-x="-18.875154"
       inkscape:transform-center-y="-3.5522685"
       inkscape:export-xdpi="90"
       inkscape:export-ydpi="90" />
    <path
       style="fill:#000000;fill-opacity:1;stroke:#000000;stroke-width:7.34924507;stroke-linecap:square;stroke-miterlimit:0;stroke-dasharray:none;stroke-opacity:1"
       id="path4859-2-3"
       d="m 508.96532,444.50948 c 13.45549,21.149 1.04867,69.78471 -11.25358,76.4988 10.6768,-12.64079 7.86539,-15.43698 11.79804,-23.15547 4.07905,-26.18202 7.48941,-34.35312 -0.54446,-53.34333 z"
       inkscape:connector-curvature="0"
       sodipodi:nodetypes="cccc"
       inkscape:transform-center-x="-52.205494"
       inkscape:transform-center-y="-29.845175"
       inkscape:export-xdpi="90"
       inkscape:export-ydpi="90" />
    <ellipse
       style="fill:#000000;fill-opacity:1"
       id="path4179-5-4-3"
       ry="7.2039242"
       rx="4.2609248"
       cy="-304.90643"
       cx="291.26474"
       transform="matrix(0.96994077,0.24334112,0.1489238,-0.98884867,0,0)"
       inkscape:export-xdpi="90"
       inkscape:export-ydpi="90" />
    <ellipse
       style="fill:#000000;fill-opacity:1"
       id="path4179-5-4-3-4"
       ry="7.2039242"
       rx="4.2609248"
       cy="-307.32751"
       cx="270.25204"
       transform="matrix(0.96994077,0.24334112,0.1489238,-0.98884867,0,0)"
       inkscape:export-xdpi="90"
       inkscape:export-ydpi="90" />
    <path
       style="fill:#000000;fill-opacity:1;stroke:#000000;stroke-width:7.34924507;stroke-linecap:square;stroke-miterlimit:0;stroke-dasharray:none;stroke-opacity:1"
       id="path4859-2-3-1"
       d="m 170.06241,384.44963 c 5.92482,-24.35625 49.58846,-49.11201 62.95395,-44.89442 -16.51234,1.06115 -16.5803,5.02576 -24.87042,7.53867 -21.70386,15.20129 -29.95841,18.4044 -38.08353,37.35575 z"
       inkscape:connector-curvature="0"
       sodipodi:nodetypes="cccc"
       inkscape:transform-center-x="55.6729"
       inkscape:transform-center-y="-15.093806"
       inkscape:export-xdpi="90"
       inkscape:export-ydpi="90" />
  </g>
</svg>
